<svg width="600" height="200" viewBox="0 0 600 200" fill="none" xmlns="http://www.w3.org/2000/svg">
  <!-- Lotus Icon -->
  <g transform="translate(20, 40)">
    <!-- Lotus Base (Dark teal) -->
    <path d="M80 80 C100 100, 120 100, 140 80 C130 90, 110 100, 100 100 C90 100, 70 90, 60 80 C60 60, 80 40, 100 40 C120 40, 140 60, 140 80" fill="#195B75"/>
    
    <!-- Lotus Petals (Buff/Gold) -->
    <path d="M100 20 C90 30, 85 45, 90 55 C95 50, 100 40, 100 30 C100 40, 105 50, 110 55 C115 45, 110 30, 100 20 Z" fill="#D6995E"/>
    <path d="M120 30 C115 40, 120 55, 130 60 C125 55, 120 45, 125 35 C130 45, 135 55, 140 60 C150 55, 145 40, 135 30 C125 35, 120 30, 120 30 Z" fill="#D6995E"/>
    <path d="M135 50 C130 60, 135 75, 145 80 C140 75, 135 65, 140 55 C145 65, 150 75, 155 80 C165 75, 160 60, 150 50 C140 55, 135 50, 135 50 Z" fill="#D6995E"/>
    <path d="M80 30 C85 40, 80 55, 70 60 C75 55, 80 45, 75 35 C70 45, 65 55, 60 60 C50 55, 55 40, 65 30 C75 35, 80 30, 80 30 Z" fill="#D6995E"/>
    <path d="M65 50 C70 60, 65 75, 55 80 C60 75, 65 65, 60 55 C55 65, 50 75, 45 80 C35 75, 40 60, 50 50 C60 55, 65 50, 65 50 Z" fill="#D6995E"/>
    
    <!-- Center Dot -->
    <circle cx="100" cy="60" r="8" fill="#D6995E"/>
  </g>
  
  <!-- BRAVURA Text -->
  <g transform="translate(220, 60)">
    <text x="0" y="0" font-family="Arial, Helvetica, sans-serif" font-size="48" font-weight="700" fill="#0C3347" letter-spacing="-1px">
      BRAVURA
    </text>
    <circle cx="340" cy="-12" r="6" fill="#D6995E"/>
  </g>
  
  <!-- Tagline -->
  <g transform="translate(220, 120)">
    <text x="0" y="0" font-family="Arial, Helvetica, sans-serif" font-size="16" font-weight="400" fill="#0C3347" letter-spacing="2px">
      A DATA WORKS COMPANY.
    </text>
  </g>
</svg>